# xmcd
#
# Track frame offsets: 
#        150
#        16775
#        36304
#        49883
#        66775
#        84863
#        101499
#        115949
#        133390
#        150314
#        167939
#
# Disc length: 2485 seconds
#
# Revision: 5
# Processed by: cddbd v1.5.2PL0 Copyright (c) Steve Scherf et al.
# Submitted via: ExactAudioCopyFreeDBPlugin 1.0
#
DISCID=8909b30b
DTITLE=Martina McBride - Shine
DYEAR=2009
DGENRE=Country
TTITLE0=Wrong Baby Wrong Baby Wrong
TTITLE1=I Just Call You Mine
TTITLE2=Sunny Side Up
TTITLE3=Walk Away
TTITLE4=I'm Trying
TTITLE5=What Do I Have To Do
TTITLE6=Don't Cost A Dime
TTITLE7=Ride
TTITLE8=You're Not Leaving Me
TTITLE9=Wild Rebel Rose
TTITLE10=Lies
EXTD=YEAR: 2009
EXTT0=
EXTT1=
EXTT2=
EXTT3=
EXTT4=
EXTT5=
EXTT6=
EXTT7=
EXTT8=
EXTT9=
EXTT10=
PLAYORDER=
